<mxfile host="app.diagrams.net" modified="2024-03-30T07:29:06.856Z" agent="Mozilla/5.0 (Windows NT 10.0; Win64; x64) AppleWebKit/537.36 (KHTML, like Gecko) Chrome/123.0.0.0 Safari/537.36" etag="mNmaxh0uTEUVLK8v741D" version="24.2.1" type="github">
  <diagram name="Page-1" id="74e2e168-ea6b-b213-b513-2b3c1d86103e">
    <mxGraphModel dx="1235" dy="614" grid="1" gridSize="10" guides="1" tooltips="1" connect="1" arrows="1" fold="1" page="1" pageScale="1" pageWidth="1100" pageHeight="850" background="none" math="0" shadow="0">
      <root>
        <mxCell id="0" />
        <mxCell id="1" parent="0" />
        <mxCell id="KxKvyKADQoj79-ZSLeWC-3" value="" style="edgeStyle=orthogonalEdgeStyle;rounded=0;orthogonalLoop=1;jettySize=auto;html=1;verticalAlign=middle;" edge="1" parent="1" source="KxKvyKADQoj79-ZSLeWC-1" target="KxKvyKADQoj79-ZSLeWC-2">
          <mxGeometry relative="1" as="geometry" />
        </mxCell>
        <mxCell id="KxKvyKADQoj79-ZSLeWC-1" value="数据收集，指定研究方案" style="ellipse;whiteSpace=wrap;html=1;verticalAlign=middle;" vertex="1" parent="1">
          <mxGeometry x="420" y="110" width="150" height="80" as="geometry" />
        </mxCell>
        <mxCell id="KxKvyKADQoj79-ZSLeWC-5" value="" style="edgeStyle=orthogonalEdgeStyle;rounded=0;orthogonalLoop=1;jettySize=auto;html=1;verticalAlign=middle;" edge="1" parent="1" source="KxKvyKADQoj79-ZSLeWC-2" target="KxKvyKADQoj79-ZSLeWC-4">
          <mxGeometry relative="1" as="geometry" />
        </mxCell>
        <mxCell id="KxKvyKADQoj79-ZSLeWC-2" value="下载肺炎图像分类数据集" style="whiteSpace=wrap;html=1;verticalAlign=middle;" vertex="1" parent="1">
          <mxGeometry x="425" y="220" width="140" height="60" as="geometry" />
        </mxCell>
        <mxCell id="KxKvyKADQoj79-ZSLeWC-7" value="" style="edgeStyle=orthogonalEdgeStyle;rounded=0;orthogonalLoop=1;jettySize=auto;html=1;verticalAlign=middle;" edge="1" parent="1" source="KxKvyKADQoj79-ZSLeWC-4" target="KxKvyKADQoj79-ZSLeWC-6">
          <mxGeometry relative="1" as="geometry" />
        </mxCell>
        <mxCell id="KxKvyKADQoj79-ZSLeWC-4" value="数据预处理" style="whiteSpace=wrap;html=1;verticalAlign=middle;" vertex="1" parent="1">
          <mxGeometry x="425" y="310" width="140" height="60" as="geometry" />
        </mxCell>
        <mxCell id="KxKvyKADQoj79-ZSLeWC-9" value="" style="edgeStyle=orthogonalEdgeStyle;rounded=0;orthogonalLoop=1;jettySize=auto;html=1;verticalAlign=middle;" edge="1" parent="1" source="KxKvyKADQoj79-ZSLeWC-6" target="KxKvyKADQoj79-ZSLeWC-8">
          <mxGeometry relative="1" as="geometry" />
        </mxCell>
        <mxCell id="KxKvyKADQoj79-ZSLeWC-6" value="肺炎分类模型搭建" style="whiteSpace=wrap;html=1;verticalAlign=middle;" vertex="1" parent="1">
          <mxGeometry x="425" y="400" width="140" height="60" as="geometry" />
        </mxCell>
        <mxCell id="KxKvyKADQoj79-ZSLeWC-11" value="" style="edgeStyle=orthogonalEdgeStyle;rounded=0;orthogonalLoop=1;jettySize=auto;html=1;verticalAlign=middle;" edge="1" parent="1" source="KxKvyKADQoj79-ZSLeWC-8">
          <mxGeometry relative="1" as="geometry">
            <mxPoint x="495" y="570.0000000000002" as="targetPoint" />
          </mxGeometry>
        </mxCell>
        <mxCell id="KxKvyKADQoj79-ZSLeWC-8" value="算法评估" style="whiteSpace=wrap;html=1;verticalAlign=middle;" vertex="1" parent="1">
          <mxGeometry x="425" y="490" width="140" height="60" as="geometry" />
        </mxCell>
        <mxCell id="KxKvyKADQoj79-ZSLeWC-12" value="总结与提出改进方案" style="ellipse;whiteSpace=wrap;html=1;verticalAlign=middle;" vertex="1" parent="1">
          <mxGeometry x="420" y="570" width="150" height="80" as="geometry" />
        </mxCell>
      </root>
    </mxGraphModel>
  </diagram>
</mxfile>
